<svg xmlns="http://www.w3.org/2000/svg" xmlns:xlink="http://www.w3.org/1999/xlink" width="1080" zoomAndPan="magnify" viewBox="0 0 810 1439.999935" height="1920" preserveAspectRatio="xMidYMid meet" version="1.0"><defs><clipPath id="27d06b17e3"><path d="M 106 471.546875 L 175 471.546875 L 175 542 L 106 542 Z M 106 471.546875 " clip-rule="nonzero"/></clipPath><clipPath id="baba887caa"><path d="M 181 471.546875 L 247 471.546875 L 247 573.546875 L 181 573.546875 Z M 181 471.546875 " clip-rule="nonzero"/></clipPath><clipPath id="d39e2022c3"><path d="M 252 471.546875 L 317 471.546875 L 317 542 L 252 542 Z M 252 471.546875 " clip-rule="nonzero"/></clipPath><clipPath id="8cb7d00d0d"><path d="M 322 471.546875 L 384 471.546875 L 384 541 L 322 541 Z M 322 471.546875 " clip-rule="nonzero"/></clipPath><clipPath id="12556f20ab"><path d="M 390 471.546875 L 442 471.546875 L 442 542 L 390 542 Z M 390 471.546875 " clip-rule="nonzero"/></clipPath><clipPath id="d700249ffe"><path d="M 446 471.546875 L 511 471.546875 L 511 542 L 446 542 Z M 446 471.546875 " clip-rule="nonzero"/></clipPath><clipPath id="86df2e40fb"><path d="M 516 471.546875 L 578 471.546875 L 578 541 L 516 541 Z M 516 471.546875 " clip-rule="nonzero"/></clipPath><clipPath id="b8fac5fd0f"><path d="M 584 471.546875 L 636 471.546875 L 636 542 L 584 542 Z M 584 471.546875 " clip-rule="nonzero"/></clipPath><clipPath id="d28a1c446d"><path d="M 640 471.546875 L 704 471.546875 L 704 542 L 640 542 Z M 640 471.546875 " clip-rule="nonzero"/></clipPath><clipPath id="66531db67d"><path d="M 583.195312 617.601562 L 699.445312 617.601562 L 699.445312 733.851562 L 583.195312 733.851562 Z M 583.195312 617.601562 " clip-rule="nonzero"/></clipPath><clipPath id="d0df80b6aa"><path d="M 422.667969 617.601562 L 540.417969 617.601562 L 540.417969 735.351562 L 422.667969 735.351562 Z M 422.667969 617.601562 " clip-rule="nonzero"/></clipPath><clipPath id="56c7dc7825"><path d="M 265 617.601562 L 374 617.601562 L 374 737.601562 L 265 737.601562 Z M 265 617.601562 " clip-rule="nonzero"/></clipPath></defs><rect x="-81" width="972" fill="#ffffff" y="-143.999994" height="1727.999922" fill-opacity="1"/><rect x="-81" width="972" fill="#000000" y="-143.999994" height="1727.999922" fill-opacity="1"/><g clip-path="url(#27d06b17e3)"><path fill="#ffffff" d="M 164.8125 480.421875 C 161.710938 477.429688 158.125 475.21875 154.058594 473.796875 C 149.699219 472.28125 145.210938 471.546875 140.597656 471.589844 C 135.933594 471.546875 131.421875 472.355469 127.0625 474.011719 C 122.929688 475.585938 119.269531 477.914062 116.09375 480.992188 C 112.816406 484.226562 110.371094 488.003906 108.753906 492.316406 C 106.996094 496.828125 106.117188 501.933594 106.121094 507.632812 C 106.121094 513.140625 106.976562 518.035156 108.683594 522.304688 C 110.269531 526.414062 112.644531 530 115.808594 533.058594 C 118.929688 536.023438 122.515625 538.230469 126.5625 539.683594 C 130.914062 541.246094 135.402344 542.007812 140.027344 541.964844 C 144.6875 542.003906 149.199219 541.195312 153.558594 539.542969 C 157.695312 537.96875 161.351562 535.640625 164.527344 532.5625 C 167.792969 529.34375 170.238281 525.59375 171.867188 521.308594 C 173.621094 516.84375 174.5 511.808594 174.5 506.207031 C 174.5 500.507812 173.648438 495.523438 171.9375 491.25 C 170.339844 487.128906 167.964844 483.519531 164.8125 480.421875 Z M 155.695312 517.675781 C 154.746094 520.574219 153.511719 522.875 151.992188 524.585938 C 150.523438 526.269531 148.742188 527.503906 146.648438 528.289062 C 144.652344 529.042969 142.589844 529.421875 140.453125 529.425781 C 138.253906 529.429688 136.140625 529.003906 134.113281 528.144531 C 131.980469 527.234375 130.175781 525.878906 128.699219 524.085938 C 127 522 125.738281 519.671875 124.925781 517.105469 C 123.976562 514.304688 123.5 510.910156 123.5 506.917969 C 123.5 502.550781 123.976562 498.894531 124.925781 495.949219 C 125.875 493.003906 127.109375 490.652344 128.628906 488.898438 C 130.054688 487.191406 131.8125 485.957031 133.898438 485.195312 C 135.925781 484.472656 138.015625 484.117188 140.167969 484.125 C 142.367188 484.125 144.480469 484.550781 146.507812 485.40625 C 148.625 486.3125 150.429688 487.640625 151.921875 489.394531 C 153.488281 491.199219 154.746094 493.550781 155.695312 496.449219 C 156.644531 499.34375 157.121094 502.835938 157.121094 506.917969 C 157.121094 511.191406 156.644531 514.777344 155.695312 517.675781 Z M 155.695312 517.675781 " fill-opacity="1" fill-rule="nonzero"/></g><g clip-path="url(#baba887caa)"><path fill="#ffffff" d="M 217.101562 471.574219 C 212.730469 471.574219 208.835938 472.40625 205.417969 474.066406 C 202.042969 475.695312 199.003906 477.808594 196.300781 480.40625 L 194.324219 472.5 L 181.34375 478.859375 L 181.34375 573.207031 L 198.011719 566.152344 L 198.011719 538.246094 C 199.972656 539.5 202.085938 540.402344 204.351562 540.953125 C 206.941406 541.628906 209.578125 541.960938 212.257812 541.949219 C 216.667969 541.964844 220.941406 541.203125 225.078125 539.671875 C 229.171875 538.160156 232.757812 535.855469 235.835938 532.761719 C 238.921875 529.675781 241.390625 525.851562 243.242188 521.292969 C 245.09375 516.734375 246.019531 511.414062 246.019531 505.335938 C 246.019531 494.703125 243.433594 486.417969 238.257812 480.476562 C 233.082031 474.539062 226.027344 471.570312 217.101562 471.574219 Z M 227 516.804688 C 225.90625 519.796875 224.484375 522.21875 222.726562 524.070312 C 221.0625 525.867188 219.089844 527.222656 216.816406 528.132812 C 214.664062 528.984375 212.433594 529.410156 210.121094 529.414062 C 207.890625 529.421875 205.707031 529.113281 203.566406 528.488281 C 201.515625 527.898438 199.660156 526.921875 198.011719 525.566406 L 198.011719 491.945312 C 199.339844 490.332031 201.289062 488.695312 203.851562 487.03125 C 206.417969 485.371094 209.40625 484.539062 212.828125 484.539062 C 218.144531 484.539062 222.109375 486.507812 224.722656 490.449219 C 227.335938 494.390625 228.640625 499.496094 228.640625 505.765625 C 228.636719 510.132812 228.089844 513.8125 227 516.804688 Z M 227 516.804688 " fill-opacity="1" fill-rule="nonzero"/></g><g clip-path="url(#d39e2022c3)"><path fill="#ffffff" d="M 286.613281 471.574219 C 281.839844 471.515625 277.234375 472.371094 272.800781 474.136719 C 268.707031 475.777344 265.144531 478.199219 262.113281 481.402344 C 259.070312 484.691406 256.789062 488.441406 255.277344 492.660156 C 253.664062 497.03125 252.855469 501.875 252.855469 507.191406 C 252.855469 513.269531 253.828125 518.492188 255.777344 522.859375 C 257.589844 527.070312 260.226562 530.679688 263.6875 533.6875 C 267.109375 536.601562 270.976562 538.691406 275.292969 539.957031 C 279.917969 541.316406 284.644531 541.984375 289.46875 541.949219 C 292.589844 541.960938 295.703125 541.761719 298.796875 541.351562 L 309.335938 525.914062 L 309.28125 525.699219 C 306.582031 526.851562 303.804688 527.753906 300.941406 528.40625 C 297.679688 529.109375 294.382812 529.441406 291.046875 529.402344 C 284.773438 529.402344 279.714844 527.882812 275.871094 524.84375 C 272.027344 521.804688 270.105469 517.199219 270.101562 511.023438 L 270.101562 510.457031 L 316.105469 510.457031 L 316.105469 502.773438 C 316.105469 492.992188 313.445312 485.347656 308.128906 479.835938 C 302.8125 474.328125 295.640625 471.570312 286.613281 471.574219 Z M 270.378906 499.070312 C 270.945312 494.417969 272.605469 490.667969 275.363281 487.816406 C 278.121094 484.964844 281.632812 483.539062 285.902344 483.542969 C 287.96875 483.492188 289.9375 483.894531 291.816406 484.75 C 293.449219 485.527344 294.804688 486.644531 295.875 488.101562 C 296.953125 489.589844 297.714844 491.226562 298.15625 493.015625 C 298.636719 494.90625 298.875 496.832031 298.871094 498.785156 Z M 270.378906 499.070312 " fill-opacity="1" fill-rule="nonzero"/></g><g clip-path="url(#8cb7d00d0d)"><path fill="#ffffff" d="M 383.917969 540.527344 L 383.917969 494.796875 C 383.917969 487.386719 381.925781 481.664062 377.9375 477.628906 C 373.945312 473.59375 368.296875 471.574219 360.984375 471.574219 C 356.640625 471.515625 352.511719 472.417969 348.589844 474.28125 C 344.699219 476.214844 341.234375 478.730469 338.1875 481.832031 L 336.105469 473.09375 L 322.929688 480.632812 L 322.929688 540.527344 L 339.757812 540.527344 L 339.757812 492.800781 C 342.039062 490.398438 344.652344 488.425781 347.589844 486.890625 C 350.441406 485.417969 353.242188 484.683594 355.996094 484.679688 C 359.699219 484.679688 362.480469 485.796875 364.332031 488.027344 C 366.183594 490.261719 367.109375 493.179688 367.109375 496.789062 L 367.109375 540.527344 Z M 383.917969 540.527344 " fill-opacity="1" fill-rule="nonzero"/></g><g clip-path="url(#12556f20ab)"><path fill="#ffffff" d="M 422.9375 500.777344 L 418.660156 499.496094 C 414.101562 498.167969 411.0625 496.859375 409.542969 495.578125 C 408.023438 494.296875 407.265625 492.753906 407.265625 490.949219 C 407.25 490.4375 407.304688 489.933594 407.421875 489.433594 C 407.542969 488.9375 407.722656 488.464844 407.96875 488.011719 C 408.210938 487.5625 408.507812 487.152344 408.859375 486.78125 C 409.214844 486.410156 409.605469 486.089844 410.042969 485.820312 C 411.894531 484.589844 414.578125 483.972656 418.09375 483.96875 C 421.4375 483.984375 424.714844 484.472656 427.917969 485.4375 L 438.03125 475.859375 C 434.761719 474.390625 431.367188 473.320312 427.847656 472.652344 C 424.105469 471.933594 420.332031 471.578125 416.519531 471.585938 C 412.90625 471.542969 409.371094 472.039062 405.90625 473.082031 C 402.941406 473.964844 400.242188 475.359375 397.808594 477.273438 C 395.59375 479.046875 393.859375 481.207031 392.609375 483.753906 C 391.351562 486.339844 390.730469 489.070312 390.757812 491.945312 C 390.757812 496.980469 392.15625 501.042969 394.960938 504.125 C 397.761719 507.210938 402.105469 509.703125 407.996094 511.605469 L 412.410156 513.03125 C 416.871094 514.363281 420.03125 515.597656 421.886719 516.734375 C 423.738281 517.871094 424.664062 519.582031 424.664062 521.863281 C 424.664062 526.898438 420.722656 529.414062 412.839844 529.414062 C 409.574219 529.425781 406.371094 528.996094 403.222656 528.132812 C 402.480469 527.925781 401.75 527.707031 401.027344 527.472656 L 390.789062 537.40625 C 396.859375 540.4375 404.496094 541.953125 413.695312 541.949219 C 422.242188 541.949219 428.984375 540.027344 433.921875 536.179688 C 438.863281 532.332031 441.332031 527.132812 441.332031 520.582031 C 441.332031 515.453125 439.789062 511.320312 436.699219 508.1875 C 433.613281 505.050781 429.027344 502.582031 422.9375 500.777344 Z M 422.9375 500.777344 " fill-opacity="1" fill-rule="nonzero"/></g><g clip-path="url(#d700249ffe)"><path fill="#ffffff" d="M 480.570312 471.574219 C 475.796875 471.515625 471.191406 472.371094 466.753906 474.136719 C 462.65625 475.777344 459.097656 478.199219 456.070312 481.402344 C 453.019531 484.6875 450.742188 488.441406 449.230469 492.660156 C 447.613281 497.03125 446.804688 501.875 446.808594 507.191406 C 446.808594 513.269531 447.78125 518.492188 449.730469 522.859375 C 451.539062 527.070312 454.175781 530.679688 457.636719 533.6875 C 461.058594 536.605469 464.929688 538.695312 469.246094 539.957031 C 473.871094 541.320312 478.597656 541.984375 483.421875 541.949219 C 486.542969 541.964844 489.648438 541.769531 492.742188 541.363281 L 503.28125 525.921875 L 503.222656 525.710938 C 500.527344 526.863281 497.75 527.765625 494.890625 528.417969 C 491.625 529.121094 488.324219 529.453125 484.988281 529.414062 C 478.71875 529.414062 473.660156 527.894531 469.8125 524.855469 C 465.964844 521.816406 464.046875 517.210938 464.054688 511.035156 L 464.054688 510.464844 L 510.066406 510.464844 L 510.066406 502.773438 C 510.066406 492.992188 507.40625 485.347656 502.089844 479.835938 C 496.773438 474.328125 489.601562 471.570312 480.570312 471.574219 Z M 464.332031 499.070312 C 464.902344 494.417969 466.5625 490.667969 469.316406 487.816406 C 472.070312 484.964844 475.585938 483.539062 479.859375 483.542969 C 481.921875 483.492188 483.894531 483.894531 485.773438 484.75 C 487.40625 485.527344 488.757812 486.644531 489.832031 488.101562 C 490.910156 489.589844 491.667969 491.230469 492.109375 493.015625 C 492.589844 494.90625 492.828125 496.832031 492.824219 498.785156 Z M 464.332031 499.070312 " fill-opacity="1" fill-rule="nonzero"/></g><g clip-path="url(#86df2e40fb)"><path fill="#ffffff" d="M 577.867188 540.515625 L 577.867188 494.785156 C 577.867188 487.375 575.875 481.65625 571.886719 477.617188 C 567.898438 473.582031 562.246094 471.5625 554.933594 471.5625 C 550.589844 471.5 546.460938 472.402344 542.539062 474.269531 C 538.648438 476.203125 535.179688 478.71875 532.140625 481.820312 L 530.058594 473.082031 L 516.882812 480.617188 L 516.882812 540.515625 L 533.691406 540.515625 L 533.691406 492.789062 C 535.972656 490.382812 538.585938 488.414062 541.527344 486.878906 C 544.148438 485.453125 546.949219 484.714844 549.933594 484.671875 C 553.636719 484.671875 556.414062 485.785156 558.265625 488.019531 C 560.117188 490.25 561.042969 493.171875 561.042969 496.777344 L 561.042969 540.515625 Z M 577.867188 540.515625 " fill-opacity="1" fill-rule="nonzero"/></g><g clip-path="url(#b8fac5fd0f)"><path fill="#ffffff" d="M 616.882812 500.777344 L 612.609375 499.496094 C 608.050781 498.167969 605.011719 496.859375 603.492188 495.578125 C 601.972656 494.296875 601.210938 492.753906 601.210938 490.949219 C 601.199219 490.4375 601.25 489.933594 601.371094 489.433594 C 601.488281 488.9375 601.671875 488.464844 601.914062 488.011719 C 602.15625 487.5625 602.457031 487.152344 602.808594 486.78125 C 603.160156 486.410156 603.554688 486.089844 603.988281 485.820312 C 605.839844 484.589844 608.523438 483.972656 612.039062 483.96875 C 615.382812 483.984375 618.660156 484.472656 621.863281 485.4375 L 631.980469 475.859375 C 628.710938 474.390625 625.316406 473.320312 621.792969 472.652344 C 618.050781 471.933594 614.277344 471.578125 610.46875 471.585938 C 606.851562 471.542969 603.316406 472.039062 599.855469 473.082031 C 596.878906 473.964844 594.171875 475.363281 591.734375 477.285156 C 589.515625 479.054688 587.785156 481.21875 586.535156 483.765625 C 585.273438 486.351562 584.65625 489.082031 584.683594 491.957031 C 584.683594 496.992188 586.082031 501.054688 588.886719 504.136719 C 591.6875 507.222656 596.03125 509.714844 601.921875 511.617188 L 606.335938 513.042969 C 610.796875 514.375 613.957031 515.609375 615.808594 516.746094 C 617.664062 517.882812 618.589844 519.59375 618.589844 521.875 C 618.589844 526.910156 614.648438 529.425781 606.765625 529.425781 C 603.5 529.433594 600.292969 529.007812 597.148438 528.140625 C 596.40625 527.933594 595.675781 527.71875 594.953125 527.484375 L 584.714844 537.417969 C 590.789062 540.449219 598.421875 541.964844 607.617188 541.960938 C 616.167969 541.960938 622.910156 540.039062 627.847656 536.191406 C 632.785156 532.34375 635.257812 527.144531 635.257812 520.589844 C 635.257812 515.464844 633.710938 511.332031 630.625 508.199219 C 627.539062 505.0625 622.957031 502.589844 616.882812 500.777344 Z M 616.882812 500.777344 " fill-opacity="1" fill-rule="nonzero"/></g><g clip-path="url(#d28a1c446d)"><path fill="#ffffff" d="M 674.382812 471.546875 C 669.605469 471.488281 665 472.34375 660.5625 474.109375 C 656.46875 475.746094 652.90625 478.167969 649.878906 481.375 C 646.832031 484.660156 644.550781 488.410156 643.042969 492.628906 C 641.425781 497 640.617188 501.84375 640.621094 507.160156 C 640.621094 513.238281 641.59375 518.464844 643.539062 522.832031 C 645.351562 527.042969 647.988281 530.652344 651.445312 533.660156 C 654.871094 536.574219 658.742188 538.664062 663.058594 539.925781 C 667.683594 541.289062 672.410156 541.953125 677.230469 541.921875 C 680.351562 541.9375 683.460938 541.742188 686.554688 541.332031 L 697.089844 525.894531 L 697.035156 525.679688 C 694.335938 526.835938 691.558594 527.738281 688.699219 528.386719 C 685.4375 529.09375 682.136719 529.425781 678.800781 529.386719 C 672.53125 529.386719 667.472656 527.867188 663.625 524.828125 C 659.78125 521.785156 657.855469 517.179688 657.855469 511.007812 L 657.855469 510.4375 L 703.871094 510.4375 L 703.871094 502.746094 C 703.871094 492.964844 701.210938 485.320312 695.894531 479.808594 C 690.574219 474.296875 683.40625 471.542969 674.382812 471.546875 Z M 658.15625 499.039062 C 658.726562 494.390625 660.386719 490.636719 663.144531 487.785156 C 665.898438 484.933594 669.410156 483.511719 673.683594 483.511719 C 675.75 483.460938 677.71875 483.867188 679.597656 484.722656 C 681.230469 485.5 682.582031 486.617188 683.65625 488.070312 C 684.734375 489.5625 685.492188 491.199219 685.9375 492.984375 C 686.417969 494.878906 686.652344 496.800781 686.648438 498.757812 Z M 658.15625 499.039062 " fill-opacity="1" fill-rule="nonzero"/></g><g clip-path="url(#66531db67d)"><path fill="#ffffff" d="M 641.355469 617.601562 C 609.226562 617.601562 583.195312 643.632812 583.195312 675.761719 C 583.195312 707.886719 609.226562 733.921875 641.355469 733.921875 C 673.480469 733.921875 699.515625 707.886719 699.515625 675.761719 C 699.464844 643.632812 673.429688 617.601562 641.355469 617.601562 Z M 675.292969 662.667969 C 675.292969 662.667969 676.300781 684.925781 659.382812 698.722656 C 634.050781 719.316406 606.710938 702.601562 606.710938 702.601562 C 606.710938 702.601562 613.355469 702.699219 619.25 701.140625 C 625.089844 699.578125 629.320312 695.75 629.320312 695.75 C 629.320312 695.75 622.925781 694.441406 619.601562 692.023438 C 616.277344 689.609375 614.96875 684.976562 614.96875 684.976562 C 614.96875 684.976562 617.183594 685.175781 618.542969 685.125 C 619.953125 685.078125 621.613281 684.421875 621.613281 684.421875 C 621.613281 684.421875 617.03125 683.867188 612.753906 679.082031 C 609.378906 675.308594 609.628906 669.011719 609.628906 669.011719 C 609.628906 669.011719 611.644531 670.222656 612.703125 670.472656 C 613.757812 670.773438 615.824219 670.773438 615.824219 670.773438 C 615.824219 670.773438 611.796875 668.410156 610.035156 662.214844 C 608.269531 656.070312 611.644531 649.828125 611.644531 649.828125 C 611.644531 649.828125 617.636719 657.078125 626.5 661.710938 C 635.363281 666.34375 643.722656 666.191406 643.722656 666.191406 C 643.722656 666.191406 642.511719 662.515625 644.628906 657.078125 C 646.742188 651.640625 651.527344 647.710938 658.828125 647.160156 C 666.128906 646.554688 670.8125 652.09375 670.8125 652.09375 C 670.8125 652.09375 673.078125 651.691406 675.644531 650.734375 C 678.214844 649.828125 680.78125 648.617188 680.78125 648.617188 C 680.78125 648.617188 679.875 651.386719 678.113281 653.554688 C 676.351562 655.71875 674.386719 657.027344 674.386719 657.027344 C 674.386719 657.027344 676.703125 656.878906 679.019531 656.222656 C 681.335938 655.566406 682.59375 654.914062 682.59375 654.914062 C 679.925781 659.34375 675.292969 662.667969 675.292969 662.667969 Z M 675.292969 662.667969 " fill-opacity="1" fill-rule="nonzero"/></g><path fill="#ffffff" d="M 511.273438 662.050781 C 510.675781 658.230469 507.402344 655.503906 503.582031 655.503906 L 459.578125 655.503906 C 455.757812 655.503906 452.484375 658.28125 451.890625 662.050781 C 451.34375 665.574219 450.796875 670.484375 450.796875 676.488281 C 450.847656 682.488281 451.34375 687.402344 451.890625 690.921875 C 452.484375 694.695312 455.757812 697.472656 459.578125 697.472656 L 503.53125 697.472656 C 507.351562 697.472656 510.675781 694.695312 511.222656 690.921875 C 511.769531 687.351562 512.3125 682.488281 512.3125 676.488281 C 512.3125 670.484375 511.816406 665.574219 511.273438 662.050781 Z M 475.054688 684.871094 L 475.054688 668.152344 L 490.632812 676.535156 Z M 475.054688 684.871094 " fill-opacity="1" fill-rule="nonzero"/><g clip-path="url(#d0df80b6aa)"><path fill="#ffffff" d="M 481.554688 735.375 C 449.109375 735.375 422.667969 708.980469 422.667969 676.488281 C 422.667969 644.042969 449.109375 617.601562 481.554688 617.601562 C 514 617.601562 540.441406 644.042969 540.441406 676.488281 C 540.441406 708.980469 514.050781 735.375 481.554688 735.375 Z M 481.554688 620.824219 C 450.847656 620.824219 425.894531 645.777344 425.894531 676.488281 C 425.894531 707.195312 450.847656 732.148438 481.554688 732.148438 C 512.265625 732.148438 537.21875 707.195312 537.21875 676.488281 C 537.21875 645.777344 512.265625 620.824219 481.554688 620.824219 Z M 481.554688 620.824219 " fill-opacity="1" fill-rule="nonzero"/></g><g clip-path="url(#56c7dc7825)"><path fill="#ffffff" d="M 360.867188 617.601562 C 367.886719 617.601562 373.542969 623.277344 373.875 629.96875 L 373.875 737.449219 L 360.515625 726.097656 L 353.179688 719.425781 L 345.160156 712.441406 L 348.5 723.445312 L 278.410156 723.445312 C 271.40625 723.445312 265.734375 718.136719 265.734375 711.078125 L 265.734375 629.988281 C 265.734375 623.300781 271.410156 617.621094 278.433594 617.621094 L 360.828125 617.621094 Z M 330.316406 645.980469 L 330.160156 645.980469 L 329.144531 646.976562 C 339.503906 649.980469 344.515625 654.664062 344.515625 654.664062 C 337.84375 651.328125 331.8125 649.648438 325.808594 648.964844 C 321.476562 648.304688 317.125 648.65625 313.457031 648.964844 L 312.445312 648.964844 C 310.101562 648.964844 305.109375 649.980469 298.417969 652.652344 C 296.09375 653.667969 294.75 654.328125 294.75 654.328125 C 294.75 654.328125 299.742188 649.316406 310.785156 646.644531 L 310.101562 645.980469 C 310.101562 645.980469 301.753906 645.648438 292.742188 652.324219 C 292.742188 652.324219 283.734375 668.027344 283.734375 687.375 C 283.734375 687.375 288.726562 696.054688 302.421875 696.386719 C 302.421875 696.386719 304.429688 693.734375 306.441406 691.394531 C 298.753906 689.050781 295.75 684.371094 295.75 684.371094 C 295.75 684.371094 296.433594 684.703125 297.429688 685.367188 L 297.722656 685.367188 C 297.878906 685.367188 297.957031 685.445312 298.03125 685.523438 L 298.03125 685.5625 C 298.109375 685.640625 298.1875 685.695312 298.324219 685.695312 C 299.984375 686.378906 301.621094 687.039062 302.96875 687.703125 C 305.308594 688.699219 308.292969 689.710938 311.960938 690.378906 C 316.605469 691.058594 321.925781 691.375 327.992188 690.378906 C 330.980469 689.695312 333.984375 689.050781 336.984375 687.703125 C 338.917969 686.707031 341.316406 685.714844 343.949219 684.019531 C 343.949219 684.019531 340.964844 688.699219 332.945312 691.039062 C 334.585938 693.363281 336.902344 696.03125 336.902344 696.03125 C 350.613281 695.722656 355.941406 687.039062 356.234375 687.410156 C 356.234375 668.082031 347.160156 652.359375 347.160156 652.359375 C 339.007812 646.292969 331.359375 646.058594 330.015625 646.058594 L 330.289062 645.964844 Z M 331.15625 668.027344 C 334.667969 668.027344 337.496094 671.011719 337.496094 674.679688 C 337.496094 678.386719 334.648438 681.367188 331.15625 681.367188 C 327.640625 681.367188 324.8125 678.382812 324.8125 674.714844 C 324.8125 671.007812 327.660156 668.027344 331.15625 668.027344 Z M 308.46875 668.027344 C 311.960938 668.027344 314.792969 671.011719 314.792969 674.679688 C 314.792969 678.386719 311.945312 681.367188 308.453125 681.367188 C 304.9375 681.367188 302.09375 678.382812 302.09375 674.714844 C 302.09375 671.007812 304.9375 668.027344 308.453125 668.027344 Z M 308.46875 668.027344 " fill-opacity="1" fill-rule="nonzero"/></g><path fill="#ffffff" d="M 157.007812 618.777344 C 127.671875 618.777344 103.882812 642.566406 103.882812 671.910156 C 103.882812 695.382812 119.105469 715.300781 140.21875 722.328125 C 142.875 722.816406 143.84375 721.175781 143.84375 719.765625 C 143.84375 718.503906 143.796875 715.164062 143.773438 710.730469 C 128.992188 713.941406 125.875 703.605469 125.875 703.605469 C 123.457031 697.46875 119.972656 695.832031 119.972656 695.832031 C 115.148438 692.539062 120.339844 692.605469 120.339844 692.605469 C 125.671875 692.980469 128.476562 698.082031 128.476562 698.082031 C 133.21875 706.199219 140.914062 703.855469 143.941406 702.496094 C 144.425781 699.0625 145.796875 696.722656 147.316406 695.394531 C 135.515625 694.050781 123.113281 689.492188 123.113281 669.132812 C 123.113281 663.332031 125.183594 658.589844 128.582031 654.875 C 128.035156 653.53125 126.210938 648.128906 129.105469 640.8125 C 129.105469 640.8125 133.5625 639.386719 143.714844 646.257812 C 147.949219 645.082031 152.496094 644.492188 157.015625 644.46875 C 161.527344 644.492188 166.074219 645.082031 170.316406 646.257812 C 180.460938 639.386719 184.914062 640.8125 184.914062 640.8125 C 187.8125 648.128906 185.988281 653.53125 185.445312 654.875 C 188.851562 658.589844 190.90625 663.332031 190.90625 669.132812 C 190.90625 689.546875 178.480469 694.035156 166.648438 695.351562 C 168.550781 696.992188 170.25 700.234375 170.25 705.191406 C 170.25 712.292969 170.1875 718.023438 170.1875 719.765625 C 170.1875 721.1875 171.144531 722.839844 173.839844 722.320312 C 194.9375 715.28125 210.144531 695.378906 210.144531 671.910156 C 210.144531 642.566406 186.355469 618.777344 157.007812 618.777344 Z M 157.007812 618.777344 " fill-opacity="1" fill-rule="evenodd"/></svg>