<svg fill="white" width="100" height="48" xmlns="http://www.w3.org/2000/svg">
  <g transform="translate(0.000000,25.000000) scale(0.100000,-0.100000)" class="fill-lightText dark:fill-darkText">
    <path d="M286 235 c-3 -8 -15 -14 -28 -12 -17 1 -24 -4 -26 -20 -2 -16 2 -23 12 -23 9 0 16 5 16 10 0 6 17 10 38 10 26 0 41 -6 49 -20 16 -25 7 -49 -31 -82 -17 -15 -27 -30 -22 -35 5 -4 11 -2 13 5 3 6 18 12 34 12 24 0 29 4 29 25 0 16 6 25 15 25 17 0 20 27 4 32 -6 2 -12 15 -13 28 -1 18 -8 26 -24 28 -13 2 -26 10 -29 18 -7 18 -29 18 -37 -1z"></path>
    <path d="M146 91 c33 -62 39 -68 51 -53 12 16 14 16 26 0 12 -15 18 -9 51 53 l37 69 -24 0 c-14 0 -28 -7 -31 -16 -6 -15 -8 -15 -26 1 -19 17 -21 17 -40 0 -18 -16 -20 -16 -26 -1 -3 9 -17 16 -31 16 l-24 0 37 -69z"></path>
    <path d="M43 91 c-18 -33 -33 -64 -33 -70 0 -20 39 -11 54 11 l16 22 16 -22 c9 -13 26 -22 40 -22 l25 0 -37 70 c-20 39 -39 70 -43 70 -3 0 -21 -27 -38 -59z"></path>
  </g>
</svg>