<svg data-name="Layer 1" xmlns="http://www.w3.org/2000/svg" viewBox="0 0 244 28.005" width="50" height="24" fill="white" class="fill-lightText dark:fill-darkText w-full">
  <path d="M84.577 4.792h-8.696v22.653h-4.516V4.792H62.67V.574h21.907v4.218Z"></path>
  <path d="M94.399 7.292v4.18c-1.194-.336-2.911-.224-4.18.485-1.829 1.045-2.65 2.874-2.65 5.487v10.001h-4.516V7.292h3.994v3.247a6.658 6.658 0 0 1 2.015-2.202c1.455-1.008 3.545-1.343 5.337-1.045ZM114.987 7.292v20.153h-3.994V25.17c-.15.15-.299.335-.448.522-1.306 1.53-3.321 2.202-5.15 2.277-2.276.149-4.59-.224-6.494-2.015-2.35-2.128-2.425-5.673-2.425-8.92v-9.74h4.553v9.553c0 2.352.298 4.59 1.605 5.785.783.784 1.94 1.194 3.358 1.157a4.649 4.649 0 0 0 2.65-.933c.784-.634 1.344-1.605 1.568-2.8.223-.97.223-2.537.223-3.955V7.292h4.554ZM130.347 13.488c-.224-1.717-1.753-2.8-3.806-2.874-1.978-.075-3.508.709-3.508 1.94 0 1.12.784 1.642 2.24 2.09 1.006.299 2.051.56 3.582.97 4.105 1.046 6.232 2.576 6.232 5.935 0 4.142-3.508 6.456-8.061 6.456-4.89 0-8.36-1.94-9.144-6.419l4.591-.71c.485 2.165 2.35 3.21 4.665 3.21 1.866 0 3.359-.783 3.359-2.314 0-1.306-1.045-1.866-2.687-2.313-1.754-.486-3.322-.896-4.777-1.344-2.687-.746-4.479-2.5-4.479-5.337 0-4.03 3.77-6.046 7.875-6.046 4.404 0 7.987 2.053 8.51 5.934l-4.592.821ZM144.429 18.973c0 1.568-.075 2.837.41 3.62.486.821 1.381 1.157 2.202 1.232 1.008.075 2.24 0 3.322-.15v3.77c-1.53.41-4.068.41-5.524.15-1.829-.299-3.023-.934-4.068-2.538-1.007-1.568-.82-3.546-.82-5.86V10.8h-3.658V7.292h3.657V.574h4.479v6.718h5.934V10.8h-5.934v8.173ZM172.063 17.369c0 6.046-3.62 10.636-9.218 10.636-2.351 0-4.255-.746-5.71-2.015v1.455h-3.994V.575h4.516V8.3c1.344-1.008 3.023-1.567 5.038-1.567 5.71 0 9.368 4.515 9.368 10.636Zm-4.777 0c0-3.658-1.642-6.606-5.262-6.606-3.434 0-4.889 2.687-4.889 6.606s1.418 6.606 5.038 6.606c3.508 0 5.113-2.911 5.113-6.606ZM175.368 27.445V.575h4.478v26.87h-4.478ZM183.131 17.369c0-6.308 4.069-10.636 10.04-10.636 6.046 0 10.04 4.403 10.04 10.636 0 6.27-4.032 10.636-10.04 10.636-6.084 0-10.04-4.404-10.04-10.636Zm10.04-6.42c-3.62 0-5.263 2.613-5.263 6.42 0 3.918 1.792 6.419 5.263 6.419 3.545 0 5.3-2.65 5.3-6.42 0-3.918-1.792-6.418-5.3-6.418ZM219.549 14.383c-.672-2.165-2.426-3.434-4.479-3.434-3.545 0-5.113 2.725-5.113 6.42 0 3.844 1.717 6.419 5.113 6.419 2.389 0 3.658-1.12 4.367-3.173l4.59 1.008c-1.231 4.105-4.478 6.382-8.957 6.382-6.232 0-9.852-4.553-9.89-10.636.038-6.196 3.807-10.636 9.928-10.636 4.59 0 7.949 2.462 8.92 6.418l-4.48 1.232ZM226.821.574h4.553v16.421l7.352-9.703h5.635l-7.837 10.077 8.51 10.076h-5.972l-7.688-9.703v9.703h-4.59l.037-26.87Z"></path>
  <path class="" d="M11.59 12.3 1.658 6.552a.37.37 0 0 1 0-.64L11.59.184a1.37 1.37 0 0 1 1.369 0l9.943 5.74a.37.37 0 0 1 0 .64L12.96 12.3a1.37 1.37 0 0 1-1.37 0Z"></path>
  <path class="" d="M37.95 1.06v11.478c0 .49-.26.941-.684 1.186L12.96 27.758a1.37 1.37 0 0 1-1.37 0L.683 21.452A1.37 1.37 0 0 1 0 20.267V8.79a.37.37 0 0 1 .554-.32l11.036 6.38a1.37 1.37 0 0 0 1.37 0L37.397.74a.37.37 0 0 1 .554.32ZM49.682 22.02l-9.943 5.738a1.37 1.37 0 0 1-1.37 0l-9.942-5.739a.37.37 0 0 1 0-.64l9.943-5.738a1.37 1.37 0 0 1 1.37 0l9.942 5.739a.37.37 0 0 1 0 .64ZM50.786 19.463l-9.942-5.74a1.37 1.37 0 0 1-.685-1.185V1.06a.37.37 0 0 1 .554-.32l9.942 5.74c.424.244.685.696.685 1.185v11.478a.37.37 0 0 1-.554.32Z"></path>
</svg>